<?xml version="1.0" encoding="UTF-8"?>
<svg width="22px" height="23px" viewBox="0 0 22 23" version="1.1" xmlns="http://www.w3.org/2000/svg" xmlns:xlink="http://www.w3.org/1999/xlink">
    <!-- Generator: Sketch 46 (44423) - http://www.bohemiancoding.com/sketch -->
    <title>thumbs-down</title>
    <desc>Created with Sketch.</desc>
    <defs></defs>
    <g id="icons" stroke="none" stroke-width="1" fill="none" fill-rule="evenodd">
        <g id="Artboard" transform="translate(-167.000000, -200.000000)" fill-rule="nonzero" fill="#FFFFFF">
            <path d="M171.274551,210 L173.771746,207.173351 C174.439955,206.416986 175.162442,204.944646 175.351574,203.957518 L176.003938,200.552664 L177.299442,200.564688 C178.639609,200.577127 179.914378,201.621785 180.18745,202.935994 L180.206942,203.029803 C180.448427,204.191992 180.368674,206.009215 180.025483,207.15366 L179.265444,209.688173 C179.204562,209.891199 179.286637,210 179.502473,210 L187.497527,210 C188.328169,210 189,210.667351 189,211.498957 C189,212.325327 188.570965,213.134443 188,213.599376 L188,215.245112 C188,215.946508 187.592491,216.550999 187,216.832082 L187,218.245112 C187,218.946508 186.592491,219.550999 186,219.832082 L186,220.754888 C186,221.992879 184.987096,223 183.750082,223 L175.812012,223 C174.776269,223 173.202314,222.703714 172.239428,222.326588 L171.405577,222 L167.999807,222 C167.447629,222 167,221.544239 167,220.997527 L167,211.002473 C167,210.448823 167.443717,210 167.999807,210 L171.274551,210 Z M172,214.844614 L172,220.079424 L172,221.158849 L172.604116,221.395458 C173.450617,221.727 174.900867,222 175.812012,222 L183.750082,222 C184.436089,222 185,221.439308 185,220.754888 L185,220 L184,220 L184,219.5 L184,219 L185.25,219 C185.666627,219 186,218.664431 186,218.245112 L186,217 L185.541958,217 L185,217 L185,216 L186.25,216 C186.666627,216 187,215.664431 187,215.245112 L187,214 L186.083917,214 L186.083917,213 L187,213 C187.385828,213 188,212.255523 188,211.498957 C188,211.221139 187.777376,211 187.497527,211 L179.502473,211 C178.620092,211 178.053355,210.248719 178.307585,209.400935 L179.067624,206.866421 C179.36312,205.881023 179.435472,204.23244 179.227854,203.233242 L179.208362,203.139433 C179.031079,202.286225 178.160411,201.572722 177.290162,201.564645 L176.829054,201.560366 L176.333709,204.145693 C176.11088,205.308695 175.308067,206.944729 174.521176,207.835434 L172,210.689228 L172,214.844614 Z M171,211 L167.999807,211 C167.998975,211 167.999039,214.332509 168,220.997527 C168,220.996514 169,220.997338 171,221 L171,211 Z" id="thumbs-down" transform="translate(178.000000, 211.776332) scale(1, -1) translate(-178.000000, -211.776332) "></path>
        </g>
    </g>
</svg>