<?xml version="1.0" encoding="UTF-8"?>
<svg width="22px" height="23px" viewBox="0 0 22 23" version="1.1" xmlns="http://www.w3.org/2000/svg" xmlns:xlink="http://www.w3.org/1999/xlink">
    <!-- Generator: Sketch 46 (44423) - http://www.bohemiancoding.com/sketch -->
    <title>thumbs-up</title>
    <desc>Created with Sketch.</desc>
    <defs></defs>
    <g id="icons" stroke="none" stroke-width="1" fill="none" fill-rule="evenodd">
        <g id="Artboard" transform="translate(-116.000000, -200.000000)" fill-rule="nonzero" fill="#FFFFFF">
            <path d="M120.274551,210 L122.771746,207.173351 C123.439955,206.416986 124.162442,204.944646 124.351574,203.957518 L125.003938,200.552664 L126.299442,200.564688 C127.639609,200.577127 128.914378,201.621785 129.18745,202.935994 L129.206942,203.029803 C129.448427,204.191992 129.368674,206.009215 129.025483,207.15366 L128.265444,209.688173 C128.204562,209.891199 128.286637,210 128.502473,210 L136.497527,210 C137.328169,210 138,210.667351 138,211.498957 C138,212.325327 137.570965,213.134443 137,213.599376 L137,215.245112 C137,215.946508 136.592491,216.550999 136,216.832082 L136,218.245112 C136,218.946508 135.592491,219.550999 135,219.832082 L135,220.754888 C135,221.992879 133.987096,223 132.750082,223 L124.812012,223 C123.776269,223 122.202314,222.703714 121.239428,222.326588 L120.405577,222 L116.999807,222 C116.447629,222 116,221.544239 116,220.997527 L116,211.002473 C116,210.448823 116.443717,210 116.999807,210 L120.274551,210 Z M121,214.844614 L121,220.079424 L121,221.158849 L121.604116,221.395458 C122.450617,221.727 123.900867,222 124.812012,222 L132.750082,222 C133.436089,222 134,221.439308 134,220.754888 L134,220 L133,220 L133,219.5 L133,219 L134.25,219 C134.666627,219 135,218.664431 135,218.245112 L135,217 L134.541958,217 L134,217 L134,216 L135.25,216 C135.666627,216 136,215.664431 136,215.245112 L136,214 L135.083917,214 L135.083917,213 L136,213 C136.385828,213 137,212.255523 137,211.498957 C137,211.221139 136.777376,211 136.497527,211 L128.502473,211 C127.620092,211 127.053355,210.248719 127.307585,209.400935 L128.067624,206.866421 C128.36312,205.881023 128.435472,204.23244 128.227854,203.233242 L128.208362,203.139433 C128.031079,202.286225 127.160411,201.572722 126.290162,201.564645 L125.829054,201.560366 L125.333709,204.145693 C125.11088,205.308695 124.308067,206.944729 123.521176,207.835434 L121,210.689228 L121,214.844614 Z M120,211 L116.999807,211 C116.998975,211 116.999039,214.332509 117,220.997527 C117,220.996514 118,220.997338 120,221 L120,211 Z" id="thumbs-up"></path>
        </g>
    </g>
</svg>